<svg width="453" height="307" viewBox="0 0 453 307" fill="none" xmlns="http://www.w3.org/2000/svg">
<mask id="mask0_112_4069" style="mask-type:alpha" maskUnits="userSpaceOnUse" x="0" y="-23" width="463" height="348">
<rect y="-23" width="463" height="348" fill="white"/>
</mask>
<g mask="url(#mask0_112_4069)">
<path d="M289.375 267.2C289.375 299.232 263.463 325.2 231.5 325.2L231.5 267.2H289.375Z" fill="#3699FF"/>
<path d="M405.125 209.2C373.162 209.2 347.25 183.232 347.25 151.2H405.125V209.2Z" fill="#D6DA34"/>
<path d="M231.919 337.578C193.077 337.578 161.59 306.042 161.59 267.14H231.919V337.578Z" fill="#6ED47C"/>
<path d="M231.5 296.8C215.187 296.8 201.964 283.548 201.964 267.2H231.5V296.8Z" fill="#D5E155"/>
<path d="M462.132 6.28998L433.195 6.28998C417.213 6.28998 404.257 19.2737 404.257 35.29H433.195C449.176 35.29 462.132 22.3062 462.132 6.28998Z" fill="#6ED47C"/>
<path d="M289.375 238.2H318.166C334.229 238.2 347.25 251.184 347.25 267.2H318.459C302.396 267.2 289.375 254.216 289.375 238.2Z" fill="#6ED47C"/>
<path d="M347.25 325.2V267.2C347.25 235.168 373.162 209.2 405.125 209.2V267.2C405.125 299.232 379.213 325.2 347.25 325.2Z" fill="#6ED47C"/>
<path d="M376.188 267V238.246C376.188 222.205 389.143 209.2 405.125 209.2V237.954C405.125 253.996 392.169 267 376.188 267Z" fill="#2D3652"/>
<path d="M330.087 209C330.087 199.39 337.86 191.6 347.45 191.6C357.039 191.6 364.812 199.39 364.812 209C364.812 218.61 357.039 226.4 347.45 226.4C337.86 226.4 330.087 218.61 330.087 209Z" fill="#FF743C"/>
<path d="M338.868 209.1C338.868 204.295 342.755 200.4 347.549 200.4C352.344 200.4 356.231 204.295 356.231 209.1C356.231 213.905 352.344 217.8 347.549 217.8C342.755 217.8 338.868 213.905 338.868 209.1Z" fill="#FFC700"/>
<path d="M405.125 122C405.125 105.984 392.169 92.9999 376.188 92.9999C360.206 92.9999 347.25 105.984 347.25 122C347.25 138.016 360.206 151 376.188 151H405.125V122Z" fill="#FF743C"/>
<path d="M404.392 34.8602V55.8241C404.392 67.402 395.021 76.7879 383.461 76.7879V55.8241C383.461 44.2462 392.832 34.8602 404.392 34.8602Z" fill="#A04AE3"/>
<path d="M405.125 136C405.125 127.716 398.424 121 390.157 121C381.891 121 375.19 127.716 375.19 136C375.19 144.284 381.891 151 390.157 151H405.125V136Z" fill="#FFC700"/>
<path d="M289.375 296.2C289.375 280.184 302.331 267.2 318.312 267.2C334.294 267.2 347.25 280.184 347.25 296.2C347.25 312.216 334.294 325.2 318.312 325.2C302.331 325.2 289.375 312.216 289.375 296.2Z" fill="#FF743C"/>
<path d="M302.347 295.9C302.347 287.009 309.54 279.8 318.412 279.8C327.285 279.8 334.478 287.009 334.478 295.9C334.478 304.792 327.285 312 318.412 312C309.54 312 302.347 304.792 302.347 295.9Z" fill="#2D3652"/>
<path d="M404.926 93C404.926 60.9678 430.837 35 462.801 35V93L404.926 93Z" fill="#FF743C"/>
<path d="M462.801 209C430.837 209 404.926 183.032 404.926 151L462.801 151V209Z" fill="#3699FF"/>
<path d="M404.926 151C404.926 118.967 430.837 92.9999 462.801 92.9999V151H404.926Z" fill="#6ED47C"/>
<path d="M433.264 151C433.264 134.652 446.488 121.4 462.801 121.4V151H433.264Z" fill="#D5E155"/>
<path d="M405.125 296.29C405.125 312.306 418.081 325.29 434.062 325.29C450.044 325.29 463 312.306 463 296.29C463 280.274 450.044 267.29 434.062 267.29H405.125V296.29Z" fill="#FFC700"/>
<path d="M405.125 282.29C405.125 290.574 411.826 297.29 420.093 297.29C428.359 297.29 435.06 290.574 435.06 282.29C435.06 274.006 428.359 267.29 420.093 267.29H405.125V282.29Z" fill="#FF743C"/>
<path d="M433.863 209C449.845 209 462.801 221.984 462.801 238C462.801 254.016 449.845 267 433.863 267C417.881 267 404.926 254.016 404.926 238C404.926 221.984 417.881 209 433.863 209Z" fill="#FF743C"/>
<path d="M434.162 222C443.035 222 450.228 229.208 450.228 238.1C450.228 246.992 443.035 254.2 434.162 254.2C425.29 254.2 418.097 246.992 418.097 238.1C418.097 229.208 425.29 222 434.162 222Z" fill="#2D3652"/>
<path d="M205.964 225.212H247.826C270.946 225.212 289.689 243.984 289.689 267.14H247.826C224.707 267.14 205.964 248.368 205.964 225.212Z" fill="#A04AE3"/>
<path d="M247.826 246.176H268.652C280.27 246.176 289.689 255.562 289.689 267.14H268.864C257.245 267.14 247.826 257.754 247.826 246.176Z" fill="#6ED47C"/>
</g>
</svg>
